<svg width="19" height="20" viewBox="0 0 19 20" fill="none" xmlns="http://www.w3.org/2000/svg">
<path d="M18.5 9.56936C18.5034 10.8892 18.1951 12.1912 17.6 13.3694C16.8944 14.7811 15.8098 15.9685 14.4674 16.7986C13.1251 17.6288 11.5782 18.0688 10 18.0694C8.68013 18.0728 7.37812 17.7644 6.2 17.1694L0.5 19.0694L2.4 13.3694C1.80493 12.1912 1.49656 10.8892 1.5 9.56936C1.50061 7.99112 1.94061 6.44422 2.77072 5.10191C3.60083 3.75961 4.78825 2.67493 6.2 1.96936C7.37812 1.3743 8.68013 1.06592 10 1.06936H10.5C12.5843 1.18436 14.553 2.06413 16.0291 3.54022C17.5052 5.01632 18.385 6.98502 18.5 9.06936V9.56936Z" stroke="#999999" stroke-linecap="round" stroke-linejoin="round"/>
</svg>
