<svg width="198" height="73" viewBox="0 0 198 73" fill="none" xmlns="http://www.w3.org/2000/svg">
<path d="M38.2148 35.3672C38.2148 40.3359 36.5273 44.1445 33.1523 46.793C29.7773 49.4414 24.9961 50.7656 18.8086 50.7656H10.8633V72H7.27734V20.6016H19.8633C32.0977 20.6016 38.2148 25.5234 38.2148 35.3672ZM10.8633 47.6719H17.9297C23.7188 47.6719 27.9023 46.7227 30.4805 44.8242C33.0586 42.9023 34.3477 39.7969 34.3477 35.5078C34.3477 31.5469 33.1289 28.6172 30.6914 26.7188C28.2539 24.7969 24.4805 23.8359 19.3711 23.8359H10.8633V47.6719ZM80.1211 52.8398C80.1211 59.0742 78.6094 63.9492 75.5859 67.4648C72.5625 70.957 68.3906 72.7031 63.0703 72.7031C59.7188 72.7031 56.7656 71.8945 54.2109 70.2773C51.6562 68.6602 49.6992 66.3398 48.3398 63.3164C46.9805 60.293 46.3008 56.8008 46.3008 52.8398C46.3008 46.6055 47.8125 41.7539 50.8359 38.2852C53.8594 34.793 58.0078 33.0469 63.2812 33.0469C68.5312 33.0469 72.6445 34.8164 75.6211 38.3555C78.6211 41.8711 80.1211 46.6992 80.1211 52.8398ZM49.957 52.8398C49.957 58.0898 51.1055 62.1914 53.4023 65.1445C55.7227 68.0742 58.9922 69.5391 63.2109 69.5391C67.4297 69.5391 70.6875 68.0742 72.9844 65.1445C75.3047 62.1914 76.4648 58.0898 76.4648 52.8398C76.4648 47.5664 75.293 43.4766 72.9492 40.5703C70.6289 37.6641 67.3594 36.2109 63.1406 36.2109C58.9219 36.2109 55.6641 37.6641 53.3672 40.5703C51.0938 43.4531 49.957 47.543 49.957 52.8398ZM127.406 69.2578C127.406 66.9609 128.344 65.8125 130.219 65.8125C132.141 65.8125 133.102 66.9609 133.102 69.2578C133.102 71.5547 132.141 72.7031 130.219 72.7031C128.344 72.7031 127.406 71.5547 127.406 69.2578ZM148.746 72H145.266V33.7852H148.746V72ZM144.773 23.168C144.773 20.918 145.512 19.793 146.988 19.793C147.715 19.793 148.277 20.0859 148.676 20.6719C149.098 21.2578 149.309 22.0898 149.309 23.168C149.309 24.2227 149.098 25.0547 148.676 25.6641C148.277 26.2734 147.715 26.5781 146.988 26.5781C145.512 26.5781 144.773 25.4414 144.773 23.168ZM193.184 52.8398C193.184 59.0742 191.672 63.9492 188.648 67.4648C185.625 70.957 181.453 72.7031 176.133 72.7031C172.781 72.7031 169.828 71.8945 167.273 70.2773C164.719 68.6602 162.762 66.3398 161.402 63.3164C160.043 60.293 159.363 56.8008 159.363 52.8398C159.363 46.6055 160.875 41.7539 163.898 38.2852C166.922 34.793 171.07 33.0469 176.344 33.0469C181.594 33.0469 185.707 34.8164 188.684 38.3555C191.684 41.8711 193.184 46.6992 193.184 52.8398ZM163.02 52.8398C163.02 58.0898 164.168 62.1914 166.465 65.1445C168.785 68.0742 172.055 69.5391 176.273 69.5391C180.492 69.5391 183.75 68.0742 186.047 65.1445C188.367 62.1914 189.527 58.0898 189.527 52.8398C189.527 47.5664 188.355 43.4766 186.012 40.5703C183.691 37.6641 180.422 36.2109 176.203 36.2109C171.984 36.2109 168.727 37.6641 166.43 40.5703C164.156 43.4531 163.02 47.543 163.02 52.8398Z" fill="white"/>
<rect x="89" y="22" width="10" height="50" fill="#FF647C"/>
<rect x="104" width="10" height="72" fill="#6979F8"/>
</svg>
